<svg xmlns="http://www.w3.org/2000/svg" viewBox="0 0 96 96">
  <rect width="96" height="96" rx="22" fill="#0b1217"/>
  <g transform="translate(2 -6)">
    <g fill="#5fa8c2">
      <path d="M46 62 C34 61 23 64 13 72 C25 69 36 68 48 68 Z"/>
      <path d="M42 62 C40 51 50 47 59 49 C70 51 75 59 71 67 C67 75 55 77 47 73 C44 71 43 67 42 62 Z"/>
      <path d="M58 51 C50 44 48 32 55 23 C58 19 64 18 67 21 C63 21 60 25 60 30 C60 38 63 46 65 50 C63 52 60 52 58 51 Z"/>
      <path d="M60 22 C53 17 47 16 42 18 C48 20 54 23 59 27 Z"/>
      <path d="M65 20 L90 14 L66 26 Z" fill="#d8a657"/>
    </g>
    <g fill="none" stroke="#5fa8c2" stroke-width="2.6" stroke-linecap="round" stroke-linejoin="round">
      <path d="M51 74 C50 84 49 92 47 101"/>
      <path d="M58 73 C60 83 61 92 62 101"/>
      <path d="M47 101 L40 105 M47 101 L52 105 M62 101 L69 105 M62 101 L57 105"/>
    </g>
  </g>
</svg>
